<mxfile host="app.diagrams.net" agent="Mozilla/5.0 (Windows NT 10.0; Win64; x64) AppleWebKit/537.36 (KHTML, like Gecko) Chrome/141.0.0.0 Safari/537.36" version="28.2.7">
  <diagram name="Page-1" id="aN6_IMvi036U4C1Fg0Iq">
    <mxGraphModel dx="2066" dy="1137" grid="1" gridSize="10" guides="1" tooltips="1" connect="1" arrows="1" fold="1" page="1" pageScale="1" pageWidth="850" pageHeight="1100" math="0" shadow="0">
      <root>
        <mxCell id="0" />
        <mxCell id="1" parent="0" />
        <mxCell id="3x9N-WNJ4bzo_OIqgOSU-50" value="END" style="ellipse;whiteSpace=wrap;html=1;" vertex="1" parent="1">
          <mxGeometry x="220" y="770" width="120" height="80" as="geometry" />
        </mxCell>
        <mxCell id="3x9N-WNJ4bzo_OIqgOSU-57" value="" style="edgeStyle=orthogonalEdgeStyle;rounded=0;orthogonalLoop=1;jettySize=auto;html=1;" edge="1" parent="1" source="3x9N-WNJ4bzo_OIqgOSU-51" target="3x9N-WNJ4bzo_OIqgOSU-56">
          <mxGeometry relative="1" as="geometry" />
        </mxCell>
        <mxCell id="3x9N-WNJ4bzo_OIqgOSU-51" value="START" style="ellipse;whiteSpace=wrap;html=1;" vertex="1" parent="1">
          <mxGeometry x="50" y="40" width="120" height="80" as="geometry" />
        </mxCell>
        <mxCell id="3x9N-WNJ4bzo_OIqgOSU-52" value="&lt;div&gt;Console.WriteLine(&quot;tuli 2&quot;);&lt;/div&gt;&lt;div&gt;Console.Beep();&lt;/div&gt;&lt;div&gt;Console.Beep();&lt;/div&gt;&lt;div&gt;break;&lt;/div&gt;" style="rounded=0;whiteSpace=wrap;html=1;" vertex="1" parent="1">
          <mxGeometry x="230" y="540" width="120" height="100" as="geometry" />
        </mxCell>
        <mxCell id="3x9N-WNJ4bzo_OIqgOSU-53" value="&lt;div&gt;&amp;nbsp; Console.WriteLine(&quot;tuli 1&quot;);&lt;/div&gt;&lt;div&gt;&amp;nbsp; Console.Beep();&lt;/div&gt;&lt;div&gt;&amp;nbsp; break;&lt;/div&gt;" style="rounded=0;whiteSpace=wrap;html=1;" vertex="1" parent="1">
          <mxGeometry x="50" y="540" width="120" height="100" as="geometry" />
        </mxCell>
        <mxCell id="3x9N-WNJ4bzo_OIqgOSU-54" value="&lt;div&gt;&amp;nbsp; Console.WriteLine(&quot;tuli 3&quot;);&lt;/div&gt;&lt;div&gt;&amp;nbsp; Console.Beep();&lt;/div&gt;&lt;div&gt;&amp;nbsp; Console.Beep();&lt;/div&gt;&lt;div&gt;&amp;nbsp; Console.Beep();&lt;/div&gt;&lt;div&gt;&amp;nbsp; break;&lt;/div&gt;" style="rounded=0;whiteSpace=wrap;html=1;" vertex="1" parent="1">
          <mxGeometry x="400" y="540" width="120" height="100" as="geometry" />
        </mxCell>
        <mxCell id="3x9N-WNJ4bzo_OIqgOSU-62" value="" style="edgeStyle=orthogonalEdgeStyle;rounded=0;orthogonalLoop=1;jettySize=auto;html=1;" edge="1" parent="1" source="3x9N-WNJ4bzo_OIqgOSU-55" target="3x9N-WNJ4bzo_OIqgOSU-61">
          <mxGeometry relative="1" as="geometry" />
        </mxCell>
        <mxCell id="3x9N-WNJ4bzo_OIqgOSU-55" value="switch (input)" style="rounded=0;whiteSpace=wrap;html=1;" vertex="1" parent="1">
          <mxGeometry x="50" y="300" width="120" height="60" as="geometry" />
        </mxCell>
        <mxCell id="3x9N-WNJ4bzo_OIqgOSU-58" value="" style="edgeStyle=orthogonalEdgeStyle;rounded=0;orthogonalLoop=1;jettySize=auto;html=1;" edge="1" parent="1" source="3x9N-WNJ4bzo_OIqgOSU-56" target="3x9N-WNJ4bzo_OIqgOSU-55">
          <mxGeometry relative="1" as="geometry" />
        </mxCell>
        <mxCell id="3x9N-WNJ4bzo_OIqgOSU-56" value="&amp;nbsp;Console.WriteLine(&quot;Sisesta number!&quot;);&amp;nbsp;&amp;nbsp;string input = Console.ReadLine();" style="rounded=0;whiteSpace=wrap;html=1;" vertex="1" parent="1">
          <mxGeometry x="10" y="190" width="200" height="60" as="geometry" />
        </mxCell>
        <mxCell id="3x9N-WNJ4bzo_OIqgOSU-67" value="" style="edgeStyle=orthogonalEdgeStyle;rounded=0;orthogonalLoop=1;jettySize=auto;html=1;" edge="1" parent="1" source="3x9N-WNJ4bzo_OIqgOSU-59" target="3x9N-WNJ4bzo_OIqgOSU-54">
          <mxGeometry relative="1" as="geometry" />
        </mxCell>
        <mxCell id="3x9N-WNJ4bzo_OIqgOSU-59" value="case &quot;3&quot;:" style="rhombus;whiteSpace=wrap;html=1;" vertex="1" parent="1">
          <mxGeometry x="420" y="410" width="80" height="80" as="geometry" />
        </mxCell>
        <mxCell id="3x9N-WNJ4bzo_OIqgOSU-64" value="" style="edgeStyle=orthogonalEdgeStyle;rounded=0;orthogonalLoop=1;jettySize=auto;html=1;" edge="1" parent="1" source="3x9N-WNJ4bzo_OIqgOSU-60" target="3x9N-WNJ4bzo_OIqgOSU-59">
          <mxGeometry relative="1" as="geometry" />
        </mxCell>
        <mxCell id="3x9N-WNJ4bzo_OIqgOSU-66" value="" style="edgeStyle=orthogonalEdgeStyle;rounded=0;orthogonalLoop=1;jettySize=auto;html=1;" edge="1" parent="1" source="3x9N-WNJ4bzo_OIqgOSU-60" target="3x9N-WNJ4bzo_OIqgOSU-52">
          <mxGeometry relative="1" as="geometry" />
        </mxCell>
        <mxCell id="3x9N-WNJ4bzo_OIqgOSU-60" value="case &quot;2&quot;:" style="rhombus;whiteSpace=wrap;html=1;" vertex="1" parent="1">
          <mxGeometry x="250" y="410" width="80" height="80" as="geometry" />
        </mxCell>
        <mxCell id="3x9N-WNJ4bzo_OIqgOSU-63" value="" style="edgeStyle=orthogonalEdgeStyle;rounded=0;orthogonalLoop=1;jettySize=auto;html=1;" edge="1" parent="1" source="3x9N-WNJ4bzo_OIqgOSU-61" target="3x9N-WNJ4bzo_OIqgOSU-60">
          <mxGeometry relative="1" as="geometry" />
        </mxCell>
        <mxCell id="3x9N-WNJ4bzo_OIqgOSU-65" value="" style="edgeStyle=orthogonalEdgeStyle;rounded=0;orthogonalLoop=1;jettySize=auto;html=1;" edge="1" parent="1" source="3x9N-WNJ4bzo_OIqgOSU-61" target="3x9N-WNJ4bzo_OIqgOSU-53">
          <mxGeometry relative="1" as="geometry" />
        </mxCell>
        <mxCell id="3x9N-WNJ4bzo_OIqgOSU-61" value="case &quot;1&quot;:" style="rhombus;whiteSpace=wrap;html=1;" vertex="1" parent="1">
          <mxGeometry x="70" y="410" width="80" height="80" as="geometry" />
        </mxCell>
        <mxCell id="3x9N-WNJ4bzo_OIqgOSU-69" value="" style="endArrow=classic;html=1;rounded=0;exitX=0.5;exitY=1;exitDx=0;exitDy=0;" edge="1" parent="1" source="3x9N-WNJ4bzo_OIqgOSU-54" target="3x9N-WNJ4bzo_OIqgOSU-50">
          <mxGeometry width="50" height="50" relative="1" as="geometry">
            <mxPoint x="490" y="400" as="sourcePoint" />
            <mxPoint x="540" y="350" as="targetPoint" />
          </mxGeometry>
        </mxCell>
        <mxCell id="3x9N-WNJ4bzo_OIqgOSU-70" value="" style="endArrow=classic;html=1;rounded=0;exitX=0.5;exitY=1;exitDx=0;exitDy=0;entryX=0.5;entryY=0;entryDx=0;entryDy=0;" edge="1" parent="1" source="3x9N-WNJ4bzo_OIqgOSU-52" target="3x9N-WNJ4bzo_OIqgOSU-50">
          <mxGeometry width="50" height="50" relative="1" as="geometry">
            <mxPoint x="490" y="400" as="sourcePoint" />
            <mxPoint x="280" y="760" as="targetPoint" />
          </mxGeometry>
        </mxCell>
        <mxCell id="3x9N-WNJ4bzo_OIqgOSU-71" value="" style="endArrow=classic;html=1;rounded=0;exitX=0.5;exitY=1;exitDx=0;exitDy=0;" edge="1" parent="1" source="3x9N-WNJ4bzo_OIqgOSU-53" target="3x9N-WNJ4bzo_OIqgOSU-50">
          <mxGeometry width="50" height="50" relative="1" as="geometry">
            <mxPoint x="490" y="400" as="sourcePoint" />
            <mxPoint x="540" y="350" as="targetPoint" />
          </mxGeometry>
        </mxCell>
        <mxCell id="3x9N-WNJ4bzo_OIqgOSU-74" value="&lt;div&gt;default:&lt;/div&gt;&lt;div&gt;&amp;nbsp; &amp;nbsp; Console.WriteLine(&quot;ERORR&quot;);&lt;/div&gt;&lt;div&gt;&amp;nbsp; &amp;nbsp; break;&lt;/div&gt;" style="rounded=0;whiteSpace=wrap;html=1;" vertex="1" parent="1">
          <mxGeometry x="570" y="540" width="150" height="110" as="geometry" />
        </mxCell>
        <mxCell id="3x9N-WNJ4bzo_OIqgOSU-75" value="" style="endArrow=classic;html=1;rounded=0;exitX=1;exitY=0.5;exitDx=0;exitDy=0;entryX=0.558;entryY=-0.009;entryDx=0;entryDy=0;entryPerimeter=0;" edge="1" parent="1" source="3x9N-WNJ4bzo_OIqgOSU-59" target="3x9N-WNJ4bzo_OIqgOSU-74">
          <mxGeometry width="50" height="50" relative="1" as="geometry">
            <mxPoint x="490" y="400" as="sourcePoint" />
            <mxPoint x="540" y="350" as="targetPoint" />
            <Array as="points">
              <mxPoint x="654" y="450" />
            </Array>
          </mxGeometry>
        </mxCell>
        <mxCell id="3x9N-WNJ4bzo_OIqgOSU-76" value="" style="endArrow=classic;html=1;rounded=0;exitX=0.5;exitY=1;exitDx=0;exitDy=0;entryX=1;entryY=0.5;entryDx=0;entryDy=0;" edge="1" parent="1" source="3x9N-WNJ4bzo_OIqgOSU-74" target="3x9N-WNJ4bzo_OIqgOSU-50">
          <mxGeometry width="50" height="50" relative="1" as="geometry">
            <mxPoint x="490" y="400" as="sourcePoint" />
            <mxPoint x="540" y="350" as="targetPoint" />
          </mxGeometry>
        </mxCell>
        <mxCell id="3x9N-WNJ4bzo_OIqgOSU-77" value="FALSE" style="text;html=1;whiteSpace=wrap;strokeColor=none;fillColor=none;align=center;verticalAlign=middle;rounded=0;" vertex="1" parent="1">
          <mxGeometry x="140" y="400" width="60" height="30" as="geometry" />
        </mxCell>
        <mxCell id="3x9N-WNJ4bzo_OIqgOSU-78" value="FALSE" style="text;html=1;whiteSpace=wrap;strokeColor=none;fillColor=none;align=center;verticalAlign=middle;rounded=0;" vertex="1" parent="1">
          <mxGeometry x="340" y="410" width="60" height="30" as="geometry" />
        </mxCell>
        <mxCell id="3x9N-WNJ4bzo_OIqgOSU-79" value="&lt;span style=&quot;color: rgb(0, 0, 0); font-family: Helvetica; font-size: 12px; font-style: normal; font-variant-ligatures: normal; font-variant-caps: normal; font-weight: 400; letter-spacing: normal; orphans: 2; text-align: center; text-indent: 0px; text-transform: none; widows: 2; word-spacing: 0px; -webkit-text-stroke-width: 0px; white-space: normal; background-color: rgb(236, 236, 236); text-decoration-thickness: initial; text-decoration-style: initial; text-decoration-color: initial; display: inline !important; float: none;&quot;&gt;FALSE&lt;/span&gt;" style="text;whiteSpace=wrap;html=1;" vertex="1" parent="1">
          <mxGeometry x="510" y="410" width="70" height="40" as="geometry" />
        </mxCell>
        <mxCell id="3x9N-WNJ4bzo_OIqgOSU-80" value="TRUE" style="text;html=1;whiteSpace=wrap;strokeColor=none;fillColor=none;align=center;verticalAlign=middle;rounded=0;" vertex="1" parent="1">
          <mxGeometry x="130" y="500" width="60" height="30" as="geometry" />
        </mxCell>
        <mxCell id="3x9N-WNJ4bzo_OIqgOSU-81" value="&lt;span style=&quot;color: rgb(0, 0, 0); font-family: Helvetica; font-size: 12px; font-style: normal; font-variant-ligatures: normal; font-variant-caps: normal; font-weight: 400; letter-spacing: normal; orphans: 2; text-align: center; text-indent: 0px; text-transform: none; widows: 2; word-spacing: 0px; -webkit-text-stroke-width: 0px; white-space: normal; background-color: rgb(236, 236, 236); text-decoration-thickness: initial; text-decoration-style: initial; text-decoration-color: initial; display: inline !important; float: none;&quot;&gt;TRUE&lt;/span&gt;" style="text;whiteSpace=wrap;html=1;" vertex="1" parent="1">
          <mxGeometry x="330" y="510" width="70" height="40" as="geometry" />
        </mxCell>
        <mxCell id="3x9N-WNJ4bzo_OIqgOSU-82" value="TRUE" style="text;html=1;whiteSpace=wrap;strokeColor=none;fillColor=none;align=center;verticalAlign=middle;rounded=0;" vertex="1" parent="1">
          <mxGeometry x="470" y="510" width="60" height="30" as="geometry" />
        </mxCell>
        <mxCell id="3x9N-WNJ4bzo_OIqgOSU-83" value="&lt;span style=&quot;color: rgb(0, 0, 0); font-family: Helvetica; font-size: 12px; font-style: normal; font-variant-ligatures: normal; font-variant-caps: normal; font-weight: 400; letter-spacing: normal; orphans: 2; text-align: center; text-indent: 0px; text-transform: none; widows: 2; word-spacing: 0px; -webkit-text-stroke-width: 0px; white-space: normal; background-color: rgb(236, 236, 236); text-decoration-thickness: initial; text-decoration-style: initial; text-decoration-color: initial; display: inline !important; float: none;&quot;&gt;TRUE&lt;/span&gt;" style="text;whiteSpace=wrap;html=1;" vertex="1" parent="1">
          <mxGeometry x="690" y="510" width="70" height="40" as="geometry" />
        </mxCell>
      </root>
    </mxGraphModel>
  </diagram>
</mxfile>
